/* XPM */
static char * icon_xpm[] = {
"32 32 216 2",
"  	c None",
". 	c #03030A",
"+ 	c #04040D",
"@ 	c #050516",
"# 	c #08081F",
"$ 	c #060619",
"% 	c #02020C",
"& 	c #4A2A0A",
"* 	c #532E09",
"= 	c #5454FC",
"- 	c #5454FB",
"; 	c #4F4FEF",
"> 	c #4343D1",
", 	c #4A4AEE",
"' 	c #4141E9",
") 	c #3A3AE1",
"! 	c #3939E0",
"~ 	c #1C1CC3",
"{ 	c #24246D",
"] 	c #5353FB",
"^ 	c #5050F8",
"/ 	c #4747EF",
"( 	c #3E3EE6",
"_ 	c #3434DC",
": 	c #2626CE",
"< 	c #000049",
"[ 	c #A85400",
"} 	c #232368",
"| 	c #5252FA",
"1 	c #4848F0",
"2 	c #3D3DE5",
"3 	c #2E2ED6",
"4 	c #0202AA",
"5 	c #000045",
"6 	c #4848D7",
"7 	c #4343C8",
"8 	c #4343C9",
"9 	c #4545D6",
"0 	c #3F3FE7",
"a 	c #2828D0",
"b 	c #1C1CC4",
"c 	c #0909B1",
"d 	c #0000A8",
"e 	c #4646D3",
"f 	c #0D0D0D",
"g 	c #070707",
"h 	c #010101",
"i 	c #020202",
"j 	c #000000",
"k 	c #3434C1",
"l 	c #2C2CD4",
"m 	c #1D1DC5",
"n 	c #0505AD",
"o 	c #0101A9",
"p 	c #1F1F5E",
"q 	c #4747D5",
"r 	c #040404",
"s 	c #010100",
"t 	c #CD8B49",
"u 	c #DC944C",
"v 	c #DD9855",
"w 	c #A95C0F",
"x 	c #AB5805",
"y 	c #964B00",
"z 	c #080808",
"A 	c #2525B3",
"B 	c #00003F",
"C 	c #05050F",
"D 	c #4747D4",
"E 	c #020101",
"F 	c #DE9853",
"G 	c #CD8A49",
"H 	c #6E3E10",
"I 	c #814811",
"J 	c #B96819",
"K 	c #B76616",
"L 	c #AE5B09",
"M 	c #A55402",
"N 	c #050505",
"O 	c #1A1AA7",
"P 	c #0D0DB4",
"Q 	c #0707AF",
"R 	c #00000A",
"S 	c #2C2C85",
"T 	c #DA944F",
"U 	c #C38140",
"V 	c #744A22",
"W 	c #84460B",
"X 	c #814305",
"Y 	c #995009",
"Z 	c #AC5906",
"` 	c #AB5704",
" .	c #AA5603",
"..	c #A75400",
"+.	c #A25203",
"@.	c #03035D",
"#.	c #0606AD",
"$.	c #0404AC",
"%.	c #E29B51",
"&.	c #B27335",
"*.	c #663C14",
"=.	c #895018",
"-.	c #914F0E",
";.	c #994C00",
">.	c #984E02",
",.	c #A55607",
"'.	c #A65300",
").	c #9D5105",
"!.	c #844D16",
"~.	c #0F0F0F",
"{.	c #070503",
"].	c #D4893D",
"^.	c #B86D21",
"/.	c #A85E13",
"(.	c #985412",
"_.	c #96520F",
":.	c #A75300",
"<.	c #A05001",
"[.	c #914A03",
"}.	c #7D4712",
"|.	c #7B4B1C",
"1.	c #DD954B",
"2.	c #CB7E2F",
"3.	c #C8792A",
"4.	c #BF6E1F",
"5.	c #B15D0B",
"6.	c #A45200",
"7.	c #A05201",
"8.	c #954D05",
"9.	c #7C450E",
"0.	c #673D13",
"a.	c #C57626",
"b.	c #B56412",
"c.	c #B15E0D",
"d.	c #A4560A",
"e.	c #A65707",
"f.	c #A45301",
"g.	c #A25101",
"h.	c #9C5002",
"i.	c #864502",
"j.	c #4F2D09",
"k.	c #694017",
"l.	c #75491E",
"m.	c #4F4FF6",
"n.	c #4C4CF3",
"o.	c #BD6C1B",
"p.	c #B76513",
"q.	c #AF5C09",
"r.	c #AA5806",
"s.	c #A75502",
"t.	c #A65403",
"u.	c #A05102",
"v.	c #8C4905",
"w.	c #593108",
"x.	c #60380F",
"y.	c #683F15",
"z.	c #784B1F",
"A.	c #5252F9",
"B.	c #4545EC",
"C.	c #3D3DE4",
"D.	c #3434C4",
"E.	c #A55200",
"F.	c #A95501",
"G.	c #A75503",
"H.	c #A05202",
"I.	c #924B05",
"J.	c #5B3106",
"K.	c #754618",
"L.	c #76491C",
"M.	c #774A1E",
"N.	c #00008A",
"O.	c #5151F9",
"P.	c #4141E8",
"Q.	c #3131D7",
"R.	c #2F2FD3",
"S.	c #9E5004",
"T.	c #984E05",
"U.	c #924C06",
"V.	c #86490D",
"W.	c #7C4715",
"X.	c #7A4B1D",
"Y.	c #794C20",
"Z.	c #20205F",
"`.	c #2323CA",
" +	c #11119A",
".+	c #A15203",
"++	c #824609",
"@+	c #7C4919",
"#+	c #7B4C1D",
"$+	c #7A4C1F",
"%+	c #00008E",
"&+	c #5151F4",
"*+	c #4848EB",
"=+	c #3B3BE3",
"-+	c #0A0AAF",
";+	c #00008D",
">+	c #0E0E55",
",+	c #000048",
"'+	c #00008F",
")+	c #4848E1",
"!+	c #2222CA",
"~+	c #000091",
"{+	c #000085",
"]+	c #000086",
"^+	c #202064",
"/+	c #3939E1",
"(+	c #262686",
"_+	c #1010B8",
":+	c #0000A7",
"<+	c #3838DE",
"[+	c #1515BC",
"}+	c #0000A6",
"|+	c #0000A5",
"1+	c #01010C",
"2+	c #000009",
"3+	c #000007",
"                                                                ",
"                                                                ",
"                                                                ",
"                                                                ",
"              . . . . . . . . . . . . . + @ # $ %               ",
"    & * & * * = = = = = = = = = = - ; > , ' ) ! ~ & * & * *     ",
"  * *     { * * = = = = = = = = = = ] ^ / ( _ : * * <     * *   ",
"  &   [ } [ = & = = = = = = = = = ] = | 1 2 _ 3 & 4 [ 5 [   &   ",
"  *   [ = [ = * = = = 6 7 7 7 7 7 7 7 8 9 0 a b * c [ d [   *   ",
"  & * = = = * * = = e f g h i j j i h g f k l m * * n o d * &   ",
"  p * * * * * = q h r s t u v w x y [ [ [ j z A ~ * * * * * B   ",
"C = = = [ = = D j E F G H I J K L M [ [ [ [ j N O P Q [ d d d R ",
"C = = = [ = = S j T U V W X Y Z `  . .[ [ [ ..+.@.#.$.[ d d d R ",
"C = = = = [ = E %.&.*.=.-.;.>.,.[ [ [ [ [ '.).!.~.d [ d d d d R ",
"C = = = = [ {.E ].^./.(._.M [ [ [ [ :...<.[.}.|.j j [ d d d d R ",
"C = = = = = h 1.2.3.4.5.[ [ [ ..:.6.7.8.9.0.|.|.|.h d d d d d R ",
"C = = = = [ j E a.b.c.d.e.f.[ [ [ ..g.h.i.j.k.l.j j [ d d d d R ",
"C = = | m.[ n.g o.p.q.r.s.t.[ [ :.'.u.v.w.x.y.z.j d [ d d d d R ",
"C = = A.[ B.C.D.q.E.F. .G.[ [ [ g.H.I.J.K.L.M.s N.d d [ d d d R ",
"C = = O.[ P.Q.R.j [ [ [ [ [ ..S.T.U.V.W.X.Y.s j d d d [ d d d R ",
"  Z.& * & * * `. +z r [ [ f..+++@+#+$+Y.j j j %+d * * & * * B   ",
"  * * &+*+=+* * -+;+>+j j j j j j j j j j ,+'+d * & d d d * *   ",
"  &   [ )+[ !+& #.d ~+{+{+{+{+{+]+]+]+{+{+~+d d & d [ d [   &   ",
"  *   [ ^+[ /+* Q d d d d d d d d d d d d d d d * d [ 5 [   *   ",
"  & *     (+* & _+:+d d d d d d d d d d d d d d & * <     * &   ",
"    * * * * * <+[+}+}+|+:+d d d d d d d d d d d d * * * * *     ",
"              % 1+2+3+3+3+3+3+3+3+3+3+3+3+3+3+3+3+              ",
"                                                                ",
"                                                                ",
"                                                                ",
"                                                                ",
"                                                                "};
